<svg width="33" height="33" viewBox="0 0 33 33" fill="none" xmlns="http://www.w3.org/2000/svg">
<circle cx="13.5" cy="19.5" r="12" fill="#FFEFF2" stroke="#FF96AA" stroke-width="3"/>
<path d="M32.4094 0.118377C32.3438 0.15784 32.0923 0.306912 31.8516 0.449408C29.3688 1.9204 26.6716 3.96357 24.0094 6.38819C22.5941 7.67942 20.9404 9.33018 19.5688 10.8187C17.1954 13.3968 14.8001 16.3497 12.7591 19.2128L12.6541 19.3597L12.5841 19.318C12.5448 19.2939 10.926 18.3754 8.98351 17.2749C6.12007 15.6548 5.44851 15.2821 5.42664 15.3062C5.29101 15.4553 5.08539 15.725 5.09195 15.7447C5.09633 15.7578 7.0782 18.0707 9.49757 20.8833L13.8923 25.9978H14.0563L14.2226 26L14.5573 25.3248C18.3679 17.6476 22.4104 11.5641 27.3323 6.1054C28.7913 4.48533 30.8869 2.37639 32.5407 0.857165C32.7266 0.686169 32.8776 0.532713 32.8776 0.515174C32.8732 0.482292 32.5604 0.0460354 32.5407 0.0460354C32.5341 0.0460354 32.4751 0.0767269 32.4094 0.118377Z" fill="#E91E63"/>
</svg>
