<svg width="60" height="60" viewBox="0 0 60 60" fill="none" xmlns="http://www.w3.org/2000/svg">
<path d="M30.09 13.3475C21.0025 13.3475 13.6125 20.7375 13.6075 29.82C13.605 33.5275 14.6925 36.305 16.5175 39.21L14.8525 45.29L21.0875 43.655C23.88 45.3125 26.5475 46.3075 30.075 46.3075C39.155 46.3075 46.5525 38.9175 46.555 29.8325C46.5625 20.73 39.2 13.35 30.09 13.3475ZM39.78 36.905C39.3675 38.0625 37.3875 39.1175 36.4375 39.26C35.585 39.3875 34.505 39.44 33.3175 39.065C32.5975 38.8375 31.675 38.5325 30.495 38.0225C25.5275 35.8775 22.2825 30.875 22.035 30.545C21.7875 30.215 20.0125 27.86 20.0125 25.4225C20.0125 22.985 21.2925 21.7875 21.745 21.29C22.2 20.79 22.735 20.665 23.065 20.665L24.015 20.6825C24.32 20.6975 24.7275 20.5675 25.13 21.5325C25.5425 22.525 26.5325 24.9625 26.6575 25.21C26.78 25.4575 26.865 25.7475 26.6975 26.0775C26.5325 26.4075 26.45 26.615 26.2025 26.9025L25.46 27.77C25.2125 28.0175 24.955 28.285 25.2425 28.78C25.5325 29.275 26.525 30.8975 27.9975 32.21C29.89 33.8975 31.485 34.42 31.98 34.6675C32.475 34.915 32.765 34.875 33.0525 34.5425C33.3425 34.2125 34.29 33.0975 34.62 32.6C34.95 32.1025 35.28 32.1875 35.735 32.3525C36.19 32.5175 38.625 33.715 39.12 33.965C39.615 34.2125 39.945 34.3375 40.07 34.5425C40.1925 34.755 40.1925 35.7475 39.78 36.905ZM47.5 0H12.5C5.5975 0 0 5.5975 0 12.5V47.5C0 54.4025 5.5975 60 12.5 60H47.5C54.405 60 60 54.4025 60 47.5V12.5C60 5.5975 54.405 0 47.5 0ZM30.0825 49.655C26.765 49.655 23.4975 48.8225 20.6025 47.2425L10.095 50L12.9075 39.73C11.1725 36.725 10.26 33.315 10.2625 29.82C10.2675 18.89 19.1575 10 30.0825 10C35.385 10.0025 40.3625 12.0675 44.105 15.8125C47.8475 19.5575 49.9075 24.54 49.905 29.835C49.9 40.765 41.0075 49.655 30.0825 49.655Z" fill="#7C7373"/>
</svg>
