<svg width="69" height="66" viewBox="0 0 69 66" fill="none" xmlns="http://www.w3.org/2000/svg">
<path d="M2.61474 57.5L34.5 2.97159L66.3853 57.5H2.61474Z" stroke="#7C7373" stroke-width="3"/>
<path d="M31.6797 44.8506C30.9062 45.7601 29.7712 46.2148 28.2744 46.2148C27.0355 46.2148 26.0902 45.8568 25.4385 45.1406C24.7939 44.4173 24.4681 43.3503 24.4609 41.9395V34.377H26.4482V41.8857C26.4482 43.6475 27.1644 44.5283 28.5967 44.5283C30.1149 44.5283 31.1247 43.9626 31.626 42.8311V34.377H33.6133V46H31.7227L31.6797 44.8506ZM46.4609 40.3174C46.4609 42.0863 46.0563 43.5114 45.2471 44.5928C44.4378 45.6742 43.3421 46.2148 41.96 46.2148C40.5492 46.2148 39.4391 45.7673 38.6299 44.8721V50.4688H36.6426V34.377H38.458L38.5547 35.666C39.3639 34.6634 40.4883 34.1621 41.9277 34.1621C43.3242 34.1621 44.4271 34.6885 45.2363 35.7412C46.0527 36.7939 46.4609 38.2585 46.4609 40.1348V40.3174ZM44.4736 40.0918C44.4736 38.7812 44.1943 37.7464 43.6357 36.9873C43.0771 36.2282 42.3109 35.8486 41.3369 35.8486C40.1338 35.8486 39.2314 36.3822 38.6299 37.4492V43.0029C39.2243 44.0628 40.1338 44.5928 41.3584 44.5928C42.3109 44.5928 43.0664 44.2168 43.625 43.4648C44.1908 42.7057 44.4736 41.5814 44.4736 40.0918Z" fill="#7C7373"/>
<path d="M0 64.5H68.9998" stroke="#7C7373" stroke-width="3"/>
</svg>
