<svg width="50" height="50" viewBox="0 0 50 50" fill="none" xmlns="http://www.w3.org/2000/svg">
<path fill-rule="evenodd" clip-rule="evenodd" d="M17.3333 0H32.6667C46.6667 0 50 3.33333 50 17.3333V32.6667C50 46.6667 46.6667 50 32.6667 50H17.3333C3.33333 50 0 46.6667 0 32.6667V17.3333C0 3.33333 3.33333 0 17.3333 0Z" fill="#5181B8"/>
<path fill-rule="evenodd" clip-rule="evenodd" d="M40.9466 17.2256C41.1783 16.4531 40.9466 15.8854 39.8441 15.8854H36.1983C35.2712 15.8854 34.8439 16.3758 34.6121 16.9165C34.6121 16.9165 32.7581 21.4357 30.1316 24.3711C29.2818 25.2209 28.8956 25.4912 28.432 25.4912C28.2003 25.4912 27.8649 25.2209 27.8649 24.4484V17.2256C27.8649 16.2986 27.5958 15.8854 26.8233 15.8854H21.0941C20.5148 15.8854 20.1664 16.3157 20.1664 16.7234C20.1664 17.6022 21.4796 17.8049 21.6149 20.2769V25.6458C21.6149 26.8229 21.4023 27.0363 20.9388 27.0363C19.7029 27.0363 16.6964 22.497 14.9133 17.3028C14.5639 16.2932 14.2134 15.8854 13.2816 15.8854H9.63575C8.59409 15.8854 8.38574 16.3758 8.38574 16.9165C8.38574 17.8822 9.62176 22.6717 14.1408 29.0062C17.1536 33.3321 21.3983 35.6771 25.2608 35.6771C27.5782 35.6771 27.8649 35.1562 27.8649 34.2591V30.9896C27.8649 29.9479 28.0845 29.74 28.8183 29.74C29.3591 29.74 30.2861 30.0104 32.4491 32.0961C34.9211 34.5681 35.3286 35.6771 36.7191 35.6771H40.3649C41.4066 35.6771 41.9274 35.1562 41.627 34.1284C41.2982 33.104 40.1179 31.6177 38.5519 29.8559C37.7021 28.8516 36.4275 27.7702 36.0412 27.2293C35.5005 26.5342 35.655 26.2251 36.0412 25.6072C36.0412 25.6072 40.4831 19.3499 40.9466 17.2256Z" fill="white"/>
</svg>
